<svg width="479" height="548" viewBox="0 0 479 548" fill="none" xmlns="http://www.w3.org/2000/svg">
<path d="M201.102 418.231L186.864 320.802C184.747 306.32 195.975 293.332 210.612 293.332H302.736C317.372 293.332 328.6 306.32 326.484 320.802L312.246 418.231C310.523 430.02 300.412 438.761 288.498 438.761H224.849C212.935 438.761 202.824 430.02 201.102 418.231Z" fill="#D09E89"/>
<rect x="163.757" y="267.578" width="186.945" height="51.5071" rx="17" fill="#BC8972" stroke="#FFFBEB" stroke-width="4"/>
<path d="M249.004 253.18C248.37 225.09 240.324 190.979 182.367 184.432C180.038 184.169 177.992 186.009 178.103 188.35C179.528 218.332 195.976 253.264 244.876 257.094C247.142 257.271 249.056 255.453 249.004 253.18Z" fill="#8AAE9A"/>
<path d="M265.045 223.181C265.679 195.091 273.725 160.979 331.682 154.432C334.011 154.169 336.057 156.01 335.946 158.351C334.521 188.333 318.074 223.264 269.173 227.094C266.907 227.271 264.994 225.453 265.045 223.181Z" fill="#8AAE9A"/>
<path d="M225 146C225 142.686 222.314 140 219 140C215.686 140 213 142.686 213 146H225ZM262.833 269.58V234H250.833V269.58H262.833ZM262.833 234C262.833 218.616 260.367 207.832 256.302 199.595C252.228 191.338 246.779 186.147 241.927 181.787C236.966 177.329 233.043 174.037 230.062 169.048C227.195 164.248 225 157.437 225 146H213C213 159.063 215.534 168.127 219.76 175.202C223.874 182.088 229.409 186.671 233.906 190.713C238.513 194.853 242.522 198.787 245.541 204.905C248.57 211.043 250.833 219.884 250.833 234H262.833Z" fill="#A0C2B0"/>
<path d="M257.333 270.08V69.5" stroke="#A0C2B0" stroke-width="12"/>
<path d="M297 97.4999C297 94.1862 299.686 91.4999 303 91.4999C306.314 91.4999 309 94.1862 309 97.4999H297ZM250.93 211.248V166H262.93V211.248H250.93ZM250.93 166C250.93 148.24 253.883 136.288 259.048 128.068C264.353 119.624 271.5 115.895 277.959 113.604C280.947 112.544 284.305 111.633 286.631 110.905C289.224 110.093 291.134 109.349 292.613 108.421C293.974 107.566 294.942 106.573 295.64 105.158C296.378 103.662 297 101.314 297 97.4999H309C309 102.561 308.182 106.859 306.401 110.469C304.58 114.159 301.948 116.73 298.991 118.585C296.151 120.368 293.021 121.479 290.215 122.357C287.143 123.319 284.742 123.93 281.971 124.913C276.912 126.708 272.542 129.147 269.209 134.452C265.736 139.979 262.93 149.355 262.93 166H250.93Z" fill="#A0C2B0"/>
<circle cx="218.96" cy="133.148" r="20.5376" transform="rotate(178.808 218.96 133.148)" fill="#F37A7A"/>
<circle cx="216.452" cy="92.6707" r="12.2116" transform="rotate(178.808 216.452 92.6707)" fill="#F37A7A"/>
<circle cx="208.509" cy="111.157" r="13.8768" transform="rotate(178.808 208.509 111.157)" fill="#F37A7A"/>
<circle cx="20.5376" cy="20.5376" r="20.5376" transform="matrix(0.969639 -0.244543 -0.244543 -0.969639 288.918 104.904)" fill="#F37A7A"/>
<circle cx="12.2116" cy="12.2116" r="12.2116" transform="matrix(0.969639 -0.244543 -0.244543 -0.969639 286.66 55.0973)" fill="#F37A7A"/>
<circle cx="13.8768" cy="13.8768" r="13.8768" transform="matrix(0.969639 -0.244543 -0.244543 -0.969639 298.006 72.8444)" fill="#F37A7A"/>
<ellipse cx="256.528" cy="55.0883" rx="20.0414" ry="20.5376" transform="rotate(-173.303 256.528 55.0883)" fill="#F37A7A"/>
<ellipse cx="259.639" cy="14.6551" rx="11.9165" ry="12.2116" transform="rotate(-173.303 259.639 14.6551)" fill="#F37A7A"/>
<ellipse cx="249.434" cy="31.8999" rx="13.5415" ry="13.8768" transform="rotate(-173.303 249.434 31.8999)" fill="#F37A7A"/>
<rect x="158.622" y="442.476" width="193.642" height="32.2737" rx="6" fill="#9D8C8C"/>
<rect x="150.471" y="515.204" width="111.599" height="32.6021" rx="6" fill="#BDA5A5"/>
<rect y="515.204" width="145.455" height="32.6021" rx="6" fill="#B79191"/>
<rect x="267.086" y="515.204" width="211.914" height="32.6021" rx="6" fill="#9D8C8C"/>
<rect x="297.181" y="478.84" width="97.8063" height="32.6021" rx="6" fill="#B79191"/>
<rect x="105.33" y="478.84" width="186.835" height="32.6021" rx="6" fill="#BDA5A5"/>
</svg>
