<svg width="479" height="581" viewBox="0 0 479 581" fill="none" xmlns="http://www.w3.org/2000/svg">
<path d="M201.102 451.231L186.864 353.803C184.747 339.32 195.975 326.332 210.612 326.332H302.736C317.372 326.332 328.6 339.32 326.484 353.803L312.246 451.231C310.523 463.02 300.412 471.761 288.498 471.761H224.849C212.935 471.761 202.824 463.02 201.102 451.231Z" fill="#D09E89"/>
<rect x="163.757" y="300.579" width="186.945" height="51.5071" rx="17" fill="#BC8972" stroke="#FFFBEB" stroke-width="4"/>
<path d="M248.004 258.979C247.37 230.889 239.324 196.777 181.367 190.231C179.038 189.967 176.992 191.808 177.103 194.149C178.528 224.131 194.976 259.063 243.876 262.892C246.142 263.07 248.056 261.251 248.004 258.979Z" fill="#8AAE9A"/>
<path d="M265.856 211.196C266.491 183.106 274.536 148.994 332.494 142.448C334.823 142.184 336.868 144.025 336.757 146.366C335.332 176.348 318.885 211.28 269.985 215.109C267.719 215.287 265.805 213.468 265.856 211.196Z" fill="#8AAE9A"/>
<path d="M213 123C213 119.686 210.314 117 207 117C203.686 117 201 119.686 201 123H213ZM262.833 302.58V200.5H250.833V302.58H262.833ZM262.833 200.5C262.833 184.916 259.536 174.3 253.861 166.669C248.248 159.123 240.829 155.258 234.52 152.219C227.845 149.004 222.865 146.846 219.132 142.925C215.772 139.397 213 133.864 213 123H201C201 136.136 204.457 144.916 210.441 151.2C216.052 157.092 223.53 160.246 229.313 163.031C235.462 165.992 240.501 168.815 244.232 173.831C247.901 178.763 250.833 186.584 250.833 200.5H262.833Z" fill="#A0C2B0"/>
<path d="M286 69C286 65.6863 288.686 63 292 63C295.314 63 298 65.6863 298 69H286ZM250.93 244.248V154H262.93V244.248H250.93ZM250.93 154C250.93 136.323 253.178 123.831 256.821 114.499C260.516 105.036 265.512 99.1737 270.364 94.6294C272.622 92.5141 275.119 90.4531 276.936 88.851C278.899 87.1208 280.479 85.5882 281.772 83.9139C284.149 80.836 286 76.72 286 69H298C298 79.03 295.467 85.8128 291.269 91.2489C289.274 93.8316 287.019 95.9598 284.871 97.8526C282.579 99.8735 280.692 101.398 278.567 103.388C274.651 107.055 270.88 111.485 267.999 118.864C265.067 126.374 262.93 137.272 262.93 154H250.93Z" fill="#A0C2B0"/>
<circle cx="205.96" cy="113.147" r="20.5376" transform="rotate(178.808 205.96 113.147)" fill="#F37A7A"/>
<circle cx="203.452" cy="72.6706" r="12.2116" transform="rotate(178.808 203.452 72.6706)" fill="#F37A7A"/>
<circle cx="195.509" cy="91.1571" r="13.8768" transform="rotate(178.808 195.509 91.1571)" fill="#F37A7A"/>
<circle cx="20.5376" cy="20.5376" r="20.5376" transform="matrix(0.969639 -0.244543 -0.244543 -0.969639 277.918 81.9039)" fill="#F37A7A"/>
<circle cx="12.2116" cy="12.2116" r="12.2116" transform="matrix(0.969639 -0.244543 -0.244543 -0.969639 275.66 32.0974)" fill="#F37A7A"/>
<circle cx="13.8768" cy="13.8768" r="13.8768" transform="matrix(0.969639 -0.244543 -0.244543 -0.969639 287.006 49.8444)" fill="#F37A7A"/>
<rect x="158.622" y="475.476" width="193.642" height="32.2737" rx="6" fill="#9D8C8C"/>
<rect x="150.471" y="548.204" width="111.599" height="32.6021" rx="6" fill="#BDA5A5"/>
<rect y="548.204" width="145.455" height="32.6021" rx="6" fill="#B79191"/>
<rect x="267.086" y="548.204" width="211.914" height="32.6021" rx="6" fill="#9D8C8C"/>
<rect x="297.181" y="511.84" width="97.8063" height="32.6021" rx="6" fill="#B79191"/>
<rect x="105.33" y="511.84" width="186.835" height="32.6021" rx="6" fill="#BDA5A5"/>
</svg>
