<svg width="479" height="585" viewBox="0 0 479 585" fill="none" xmlns="http://www.w3.org/2000/svg">
<path d="M201.102 455.231L186.864 357.803C184.747 343.32 195.975 330.332 210.612 330.332H302.736C317.372 330.332 328.6 343.32 326.484 357.803L312.246 455.231C310.523 467.021 300.412 475.761 288.498 475.761H224.849C212.935 475.761 202.824 467.021 201.102 455.231Z" fill="#D09E89"/>
<rect x="163.757" y="304.579" width="186.945" height="51.5071" rx="17" fill="#BC8972" stroke="#FFFBEB" stroke-width="4"/>
<path d="M248.004 262.979C247.37 234.889 239.324 200.777 181.367 194.23C179.038 193.967 176.992 195.808 177.103 198.149C178.528 228.131 194.976 263.063 243.876 266.892C246.142 267.069 248.056 265.251 248.004 262.979Z" fill="#8AAE9A"/>
<path d="M265.856 215.196C266.491 187.106 274.536 152.994 332.494 146.448C334.823 146.184 336.868 148.025 336.757 150.366C335.332 180.348 318.885 215.28 269.985 219.109C267.719 219.287 265.805 217.468 265.856 215.196Z" fill="#8AAE9A"/>
<path d="M193.255 84.4141C193.693 87.6988 196.71 90.0069 199.995 89.5694C203.28 89.1319 205.588 86.1144 205.15 82.8297L193.255 84.4141ZM262.833 306.58V114.181H250.833V306.58H262.833ZM262.833 114.181C262.833 96.4209 258.919 83.5614 252.295 74.8369C245.58 65.9931 236.535 62.0055 227.694 61.2529C219.014 60.514 210.482 62.8692 204.161 66.7016C200.992 68.6225 198.147 71.0544 196.134 73.9176C194.119 76.7825 192.723 80.4186 193.255 84.4141L205.15 82.8297C205.127 82.6581 205.116 82.0055 205.95 80.8205C206.784 79.6338 208.251 78.2545 210.381 76.9633C214.657 74.3714 220.671 72.6984 226.676 73.2096C232.52 73.7071 238.299 76.2479 242.737 82.0933C247.266 88.0578 250.833 98.0479 250.833 114.181H262.833Z" fill="#A0C2B0"/>
<path d="M322.76 23.5644C322.313 26.8477 319.288 29.1465 316.005 28.6988C312.721 28.2511 310.423 25.2265 310.87 21.9432L322.76 23.5644ZM250.93 248.248V53.7747H262.93V248.248H250.93ZM250.93 53.7747C250.93 35.7316 255.003 22.6779 261.874 13.837C268.826 4.89195 278.158 0.891263 287.241 0.135904C296.174 -0.60698 304.966 1.76075 311.489 5.62342C314.756 7.55826 317.693 10.0097 319.774 12.901C321.856 15.7929 323.316 19.4886 322.76 23.5644L310.87 21.9432C310.891 21.7889 310.913 21.131 310.035 19.9118C309.157 18.692 307.613 17.2746 305.374 15.9487C300.885 13.2899 294.562 11.5685 288.235 12.0946C282.059 12.6083 275.986 15.2348 271.349 21.2009C266.631 27.2713 262.93 37.4128 262.93 53.7747H250.93Z" fill="#A0C2B0"/>
<circle cx="197.836" cy="100.697" r="20.5376" fill="#F37A7A"/>
<circle cx="199.501" cy="141.217" r="12.2116" fill="#F37A7A"/>
<circle cx="207.827" cy="122.9" r="13.8768" fill="#F37A7A"/>
<circle cx="20.5376" cy="20.5376" r="20.5376" transform="matrix(-1 0 0 1 339.379 23.542)" fill="#F37A7A"/>
<circle cx="12.2116" cy="12.2116" r="12.2116" transform="matrix(-1 0 0 1 329.388 72.3883)" fill="#F37A7A"/>
<circle cx="13.8768" cy="13.8768" r="13.8768" transform="matrix(-1 0 0 1 322.727 52.4057)" fill="#F37A7A"/>
<rect x="158.622" y="479.476" width="193.642" height="32.2737" rx="6" fill="#9D8C8C"/>
<rect x="150.471" y="552.204" width="111.599" height="32.6021" rx="6" fill="#BDA5A5"/>
<rect y="552.204" width="145.455" height="32.6021" rx="6" fill="#B79191"/>
<rect x="267.086" y="552.204" width="211.914" height="32.6021" rx="6" fill="#9D8C8C"/>
<rect x="297.181" y="515.84" width="97.8063" height="32.6021" rx="6" fill="#B79191"/>
<rect x="105.33" y="515.84" width="186.835" height="32.6021" rx="6" fill="#BDA5A5"/>
</svg>
